<?xml version="1.0" encoding="utf-8"?>
<!-- Generator: Adobe Illustrator 22.0.1, SVG Export Plug-In . SVG Version: 6.00 Build 0)  -->
<svg version="1.1" id="Слой_1" xmlns="http://www.w3.org/2000/svg" xmlns:xlink="http://www.w3.org/1999/xlink" x="0px" y="0px"
	 viewBox="0 0 354.6 83.6" style="enable-background:new 0 0 354.6 83.6;" xml:space="preserve">
<style type="text/css">
	.st0{fill:#070000;}
	.st1{fill:#00A0E3;}
</style>
<g id="Слой_x0020_1">
	<path class="st0" d="M110.3,53.9H110l-8.5-26.8H87.7l15.6,39.1h13l15.6-39.1h-13L110.3,53.9z M148.5,42.2v-5.9h24.7v-9.2h-37.1
		v39.1h37.7V57h-25.3v-6.4h20.4v-8.5H148.5z M213.2,56.7h-20.5V27.1h-12.4v39.1h32.9V56.7z M230.9,36.3h5c3.1,0,6.4,0.1,8.8,2.2
		c2,1.7,3.1,4.7,3.1,8.1c0,3.6-1.3,6.6-3.3,8.2c-2.5,2.1-6.6,2.2-8.7,2.2h-4.9V36.3z M218.5,27.1v39.1h19.2c5,0,12.7-0.4,18-5.4
		c2.4-2.2,5.3-6.7,5.3-14.3c0-4-0.9-9.7-5.3-14c-5.2-5.1-11.8-5.4-17.7-5.4H218.5z M280.7,42.2v-5.9h24.7v-9.2h-37.1v39.1h37.7V57
		h-25.3v-6.4h20.4v-8.5H280.7z M332.6,39l-8.5-11.8h-14.9l15.3,18.7l-16.1,20.4H323l8.6-12.2l8.2,12.2h15.5l-16-20.4l15.7-18.7
		h-13.9L332.6,39z"/>
	<polygon class="st0" points="87.1,5.6 42.8,82.8 31.4,63.2 39.7,48.7 42.6,53.6 70.6,5.5 	"/>
	<polygon class="st1" points="-2,5.8 28.6,58.6 59.5,5.5 42.6,5.4 28.4,29.1 	"/>
</g>
</svg>
